<svg width="120" height="45" viewBox="0 0 120 45" fill="none" xmlns="http://www.w3.org/2000/svg">
<path d="M31.4488 1.12V13.856L28.9528 13.792L28.8248 10.592C23.7474 7.392 18.8621 4.832 14.1688 2.912V22.24H26.1368V24.608H14.1688V41.696L21.0168 41.76V44H0.280776V41.76L3.41678 41.696V3.424L0.280776 3.36V1.12H31.4488ZM63.0213 31.264V44H30.5733V41.76L33.7093 41.696V3.424L30.5733 3.36V1.12H51.3093V3.36L44.3333 3.424V41.568C49.6666 39.6907 55.0213 37.344 60.3973 34.528L60.5253 31.328L63.0213 31.264ZM62.1783 41.76L65.3143 41.696V3.424L62.1783 3.36V1.12H79.0743V3.36L75.9383 3.424V41.696L79.0743 41.76V44H62.1783V41.76ZM119.262 21.792V24.032L116.382 24.096V44H114.334L109.662 40.8C107.998 42.1227 106.185 43.1467 104.222 43.872C102.302 44.5973 100.34 44.96 98.3343 44.96C94.5796 44.96 91.2729 44.1067 88.4143 42.4C85.5556 40.6507 83.3369 38.2187 81.7583 35.104C80.1796 31.9467 79.3903 28.2987 79.3903 24.16C79.3903 20.2347 80.0943 16.5227 81.5023 13.024C82.9529 9.52533 84.7876 6.73066 87.0063 4.64C89.1823 3.232 91.5076 2.16533 93.9823 1.44C96.4996 0.671998 98.9743 0.287998 101.406 0.287998C104.649 0.287998 107.614 0.991998 110.302 2.4C113.033 3.76533 115.188 5.68533 116.766 8.16L108.894 14.752C106.548 10.784 103.881 6.56 100.894 2.08C97.9503 3.36 95.5396 5.728 93.6623 9.184C91.7849 12.64 90.8463 16.5653 90.8463 20.96C90.8463 26.3787 92.0623 30.6453 94.4943 33.76C96.9689 36.832 100.34 38.368 104.606 38.368C105.289 38.368 105.801 38.3467 106.142 38.304V24.096L103.006 24.032V21.792H119.262Z" fill="#E55839"/>
</svg>
