<svg width="92" height="93" viewBox="0 0 92 93" fill="none" xmlns="http://www.w3.org/2000/svg">
<g filter="url(#filter0_d)">
<path fill-rule="evenodd" clip-rule="evenodd" d="M10 0.906982C4.47715 0.906982 0 5.38413 0 10.907V74.6279C0 80.1508 4.47715 84.6279 10 84.6279H73.7209C79.2438 84.6279 83.7209 80.1508 83.7209 74.6279V10.907C83.7209 5.38414 79.2438 0.906982 73.7209 0.906982H10ZM28.7662 2.09017C23.5137 0.383516 17.8722 3.25802 16.1655 8.51056L0.714658 56.0634C-0.991996 61.3159 1.88251 66.9575 7.13505 68.6641L54.6879 84.115C59.9404 85.8216 65.582 82.9471 67.2886 77.6946L82.7395 30.1418C84.4461 24.8892 81.5716 19.2477 76.3191 17.541L28.7662 2.09017Z" fill="#E55839"/>
<circle cx="28.1396" cy="42.5349" r="10" stroke="#E55839" stroke-width="9.30233"/>
<circle cx="60.0001" cy="42.7674" r="9.30233" fill="#E55839"/>
</g>
<defs>
<filter id="filter0_d" x="0" y="0.906982" width="91.7209" height="91.7209" filterUnits="userSpaceOnUse" color-interpolation-filters="sRGB">
<feFlood flood-opacity="0" result="BackgroundImageFix"/>
<feColorMatrix in="SourceAlpha" type="matrix" values="0 0 0 0 0 0 0 0 0 0 0 0 0 0 0 0 0 0 127 0" result="hardAlpha"/>
<feOffset dx="4" dy="4"/>
<feGaussianBlur stdDeviation="2"/>
<feComposite in2="hardAlpha" operator="out"/>
<feColorMatrix type="matrix" values="0 0 0 0 0 0 0 0 0 0 0 0 0 0 0 0 0 0 0.25 0"/>
<feBlend mode="normal" in2="BackgroundImageFix" result="effect1_dropShadow"/>
<feBlend mode="normal" in="SourceGraphic" in2="effect1_dropShadow" result="shape"/>
</filter>
</defs>
</svg>
